<svg id="Capa_1" enable-background="new 0 0 512.002 512.002" height="512" viewBox="0 0 512.002 512.002" width="512" xmlns="http://www.w3.org/2000/svg"><g><g><g><g><path clip-rule="evenodd" d="m139.811 82h152.377 27.813c8.8 0 16-7.201 16-16v-16c0-8.8-7.2-16-16-16h-80.001c0-13.255-10.745-24-24-24s-24 10.745-24 24h-80.001c-8.8 0-16 7.2-16 16v16c0 8.8 7.2 16 16 16z" fill="#e2e9ee" fill-rule="evenodd"/></g><g><path clip-rule="evenodd" d="m292.188 90v-8h-152.377v8 16.763c0 8.381 6.859 15.238 15.238 15.238h121.901c8.379 0 15.238-6.859 15.238-15.238z" fill="#fff" fill-rule="evenodd"/></g><g><path clip-rule="evenodd" d="m356 90h-63.811v16.763c0 8.379-6.859 15.238-15.238 15.238h-121.902c-8.379 0-15.238-6.857-15.238-15.238v-16.763h-63.811v372.002h280v-86.001h-69.996c-5.5 0-10-4.5-10-9.999v-65.845l-17.084-17.084c-3.889-3.889-3.889-10.252 0-14.142l17.084-17.084v-65.847c0-5.5 4.503-9.999 10-9.999h69.996z" fill="#fff" fill-rule="evenodd"/></g><g><path clip-rule="evenodd" d="m356 90v86.001h40v-110.001c0-8.799-7.2-16-16-16h-43.999v16c0 8.799-7.2 16-16 16h-27.813v8z" fill="#66e0f7" fill-rule="evenodd"/></g><g><path clip-rule="evenodd" d="m396 176.001h-40-69.996c-5.497 0-10 4.5-10 9.999v65.847l-17.084 17.084c-3.889 3.889-3.889 10.253 0 14.142l17.084 17.084v65.845c0 5.5 4.5 9.999 10 9.999h69.996 40 70.003c5.5 0 10-4.504 10-9.999v-180.002c0-5.495-4.504-9.999-10-9.999zm-32.498 40h25c5.5 0 10 4.499 10 9.999v27.5h27.5c5.5 0 10 4.499 10 10v25c0 5.5-4.499 10-10 10h-27.5v27.5c0 5.5-4.499 9.999-10 9.999h-25c-5.5 0-10-4.499-10-9.999v-27.5h-27.5c-5.5 0-10-4.5-10-10v-25c0-5.5 4.499-10 10-10h27.5v-27.5c.001-5.499 4.5-9.999 10-9.999z" fill="#ff5d7d" fill-rule="evenodd"/></g><g><path clip-rule="evenodd" d="m388.503 216.001h-25c-5.5 0-10 4.499-10 9.999v27.5h-27.5c-5.5 0-10 4.499-10 10v25c0 5.5 4.499 10 10 10h27.5v27.5c0 5.5 4.499 9.999 10 9.999h25c5.5 0 10-4.499 10-9.999v-27.5h27.5c5.5 0 10-4.5 10-10v-25c0-5.5-4.499-10-10-10h-27.5v-27.5c0-5.499-4.5-9.999-10-9.999z" fill="#fff" fill-rule="evenodd"/></g><g><path clip-rule="evenodd" d="m76 90h63.812v-8h-27.812c-8.8 0-16-7.2-16-16v-16h-44c-8.8 0-16 7.199-16 16v420.002c0 8.801 7.201 16 16 16h328c8.798 0 16-7.201 16-16v-110.001h-40v86.001h-280z" fill="#66e0f7" fill-rule="evenodd"/></g></g><g><g><path d="m276.95 132h-121.902c-13.916 0-25.238-11.322-25.238-25.238v-14.762h-17.812c-14.336 0-26-11.664-26-26v-16c0-14.336 11.664-26 26-26h71.502c4.28-13.883 17.23-24 32.5-24s28.22 10.117 32.5 24h71.5c14.336 0 26 11.664 26 26v16c0 14.336-11.664 26-26 26h-17.813v14.762c.001 13.916-11.321 25.238-25.237 25.238zm-127.139-40v14.762c0 2.839 2.398 5.238 5.238 5.238h121.901c2.839 0 5.238-2.398 5.238-5.238v-14.762zm-37.812-48c-3.252 0-6 2.748-6 6v16c0 3.252 2.748 6 6 6h208.001c3.252 0 6-2.748 6-6v-16c0-3.252-2.748-6-6-6h-80c-5.523 0-10-4.477-10-10 0-7.72-6.28-14-14-14s-14 6.28-14 14c0 5.523-4.477 10-10 10z"/></g><g><path d="m356 472.002h-280c-5.523 0-10-4.478-10-10v-262.001c0-5.523 4.477-10 10-10s10 4.477 10 10v252.001h260v-66.001c0-5.522 4.477-10 10-10s10 4.478 10 10v76.001c0 5.522-4.478 10-10 10zm0-296.001c-5.523 0-10-4.477-10-10v-66.001h-43.811c-5.523 0-10-4.477-10-10s4.477-10 10-10h53.811c5.523 0 10 4.477 10 10v76.001c0 5.523-4.478 10-10 10zm-280-56c-5.523 0-10-4.477-10-10v-20.001c0-5.523 4.477-10 10-10h53.811c5.523 0 10 4.477 10 10s-4.477 10-10 10h-43.811v10.001c0 5.523-4.478 10-10 10z"/></g><g><path d="m380 512.002h-328c-14.336 0-26-11.663-26-26v-420.002c0-14.336 11.664-26 26-26h42.725c5.523 0 10 4.477 10 10s-4.477 10-10 10h-42.725c-3.252 0-6 2.748-6 6v420.002c0 3.252 2.748 6 6 6h328c3.252 0 6-2.748 6-6v-100.001c0-5.522 4.477-10 10-10s10 4.478 10 10v100.001c0 14.337-11.664 26-26 26zm16-336.001c-5.523 0-10-4.477-10-10v-100.001c0-3.252-2.748-6-6-6h-43.4c-5.523 0-10-4.477-10-10s4.477-10 10-10h43.4c14.336 0 26 11.664 26 26v100.001c0 5.523-4.478 10-10 10z"/></g><g><path d="m216 186.001h-90c-5.523 0-10-4.477-10-10s4.477-10 10-10h90c5.523 0 10 4.477 10 10s-4.478 10-10 10z"/></g><g><path d="m216 236.001h-90c-5.523 0-10-4.477-10-10s4.477-10 10-10h90c5.523 0 10 4.477 10 10s-4.478 10-10 10z"/></g><g><path d="m216 236.001h-90c-5.523 0-10-4.477-10-10s4.477-10 10-10h90c5.523 0 10 4.477 10 10s-4.478 10-10 10z"/></g><g><path d="m216 286h-90c-5.523 0-10-4.478-10-10 0-5.523 4.477-10 10-10h90c5.523 0 10 4.477 10 10 0 5.522-4.478 10-10 10z"/></g><g><path d="m216 236.001h-90c-5.523 0-10-4.477-10-10s4.477-10 10-10h90c5.523 0 10 4.477 10 10s-4.478 10-10 10z"/></g><g><path d="m216 286h-90c-5.523 0-10-4.478-10-10 0-5.523 4.477-10 10-10h90c5.523 0 10 4.477 10 10 0 5.522-4.478 10-10 10z"/></g><g><path d="m216 236.001h-90c-5.523 0-10-4.477-10-10s4.477-10 10-10h90c5.523 0 10 4.477 10 10s-4.478 10-10 10z"/></g><g><path d="m216 286h-90c-5.523 0-10-4.478-10-10 0-5.523 4.477-10 10-10h90c5.523 0 10 4.477 10 10 0 5.522-4.478 10-10 10z"/></g><g><path d="m216 236.001h-90c-5.523 0-10-4.477-10-10s4.477-10 10-10h90c5.523 0 10 4.477 10 10s-4.478 10-10 10z"/></g><g><path d="m216 286h-90c-5.523 0-10-4.478-10-10 0-5.523 4.477-10 10-10h90c5.523 0 10 4.477 10 10 0 5.522-4.478 10-10 10z"/></g><g><path d="m388.501 345.999h-25c-11.028 0-20-8.972-20-19.999v-17.5h-17.5c-11.028 0-20-8.972-20-20v-25c0-11.028 8.972-20 20-20h17.5v-17.5c.002-11.028 8.974-19.999 20-19.999h25c11.028 0 20 8.972 20 19.999v17.5h17.5c11.028 0 20 8.972 20 20v25c0 11.028-8.972 20-20 20h-17.5v17.5c0 11.027-8.972 19.999-20 19.999zm-35-57.499c5.523 0 10 4.478 10 10v27.5l25-.001v-27.499c0-5.522 4.477-10 10-10h27.5v-25h-27.5c-5.523 0-10-4.477-10-10v-27.5l-25.002.001.002 27.499c0 5.523-4.477 10-10 10h-27.5v25z"/></g><g><path d="m466.002 386.001h-179.999c-11.028 0-20-8.972-20-19.999v-61.703l-14.155-14.154c-7.797-7.8-7.797-20.487 0-28.285l14.155-14.155v-61.705c0-11.027 8.972-19.999 19.999-19.999h180c11.028 0 20 8.972 20 19.999v180.002c0 11.027-8.971 19.999-20 19.999zm-179.999-200.001v65.847c0 2.652-1.054 5.196-2.929 7.071l-17.084 17.083 17.084 17.084c1.875 1.876 2.929 4.419 2.929 7.071v65.845l179.999-.001v-180zm-10 65.847h.01z"/></g><g><path d="m216 336h-90c-5.523 0-10-4.478-10-10s4.477-10 10-10h90c5.523 0 10 4.478 10 10s-4.478 10-10 10z"/></g><g><path d="m216 336h-90c-5.523 0-10-4.478-10-10s4.477-10 10-10h90c5.523 0 10 4.478 10 10s-4.478 10-10 10z"/></g><g><path d="m216 386h-90c-5.523 0-10-4.478-10-10s4.477-10 10-10h90c5.523 0 10 4.478 10 10s-4.478 10-10 10z"/></g><g><path d="m216 336h-90c-5.523 0-10-4.478-10-10s4.477-10 10-10h90c5.523 0 10 4.478 10 10s-4.478 10-10 10z"/></g><g><path d="m216 386h-90c-5.523 0-10-4.478-10-10s4.477-10 10-10h90c5.523 0 10 4.478 10 10s-4.478 10-10 10z"/></g><g><path d="m216 336h-90c-5.523 0-10-4.478-10-10s4.477-10 10-10h90c5.523 0 10 4.478 10 10s-4.478 10-10 10z"/></g><g><path d="m216 386h-90c-5.523 0-10-4.478-10-10s4.477-10 10-10h90c5.523 0 10 4.478 10 10s-4.478 10-10 10z"/></g><g><path d="m216 336h-90c-5.523 0-10-4.478-10-10s4.477-10 10-10h90c5.523 0 10 4.478 10 10s-4.478 10-10 10z"/></g><g><path d="m216 386h-90c-5.523 0-10-4.478-10-10s4.477-10 10-10h90c5.523 0 10 4.478 10 10s-4.478 10-10 10z"/></g><g><path d="m76 165.004c-5.523 0-10-4.477-10-10s4.477-10.004 10-10.004 10 4.474 10 9.997v.007c0 5.523-4.478 10-10 10z"/></g></g></g></g></svg>