<?xml version="1.0" encoding="iso-8859-1"?>
<!-- Generator: Adobe Illustrator 19.0.0, SVG Export Plug-In . SVG Version: 6.00 Build 0)  -->
<svg version="1.1" id="Capa_1" xmlns="http://www.w3.org/2000/svg" xmlns:xlink="http://www.w3.org/1999/xlink" x="0px" y="0px"
	 viewBox="0 0 512 512" style="enable-background:new 0 0 512 512;" xml:space="preserve">
<path style="fill:#84DBFF;" d="M512,472.16v39.36H0v-39.36c0-20.373,12.373-38.72,31.36-46.08l42.987-16.853l40.416-16
	l65.504-25.707h0.107c18.88,25.067,47.253,37.653,75.627,37.653c28.267,0,56.544-12.587,75.52-37.653l0.107,0.32v-0.32l65.6,25.813
	l40.427,15.893l42.987,16.853C499.52,433.547,512,451.776,512,472.16"/>
<g>
	<path style="fill:#F8B64C;" d="M180.384,367.52v-0.043l0.032,0.032l0.011-0.011v0.021c37.899,50.197,113.291,50.197,151.2,0.011
		l0.032-0.053v0.043v-55.392H180.331v55.403L180.384,367.52z"/>
	<path style="fill:#F8B64C;" d="M175.776,208.832c1.664,19.147-7.616,35.605-20.747,36.747
		c-13.141,1.152-25.141-13.44-26.827-32.587s7.616-35.595,20.757-36.747C162.08,175.104,174.091,189.685,175.776,208.832"/>
	<path style="fill:#F8B64C;" d="M383.829,212.992c-1.664,19.147-13.685,33.739-26.816,32.587
		c-13.141-1.152-22.443-17.6-20.747-36.747c1.664-19.147,13.675-33.739,26.816-32.587
		C376.224,177.387,385.515,193.845,383.829,212.992"/>
</g>
<path style="fill:#FFD15C;" d="M366.539,146.923v36.267c0,1.173,0,2.347-0.107,3.52c-0.107,6.507-0.533,13.013-1.387,19.413
	c-1.589,12.587-4.256,24.96-8,36.907c-9.067,28.907-24.32,55.573-44.907,78.08l-10.56,11.52
	c-9.589,10.56-23.253,16.533-37.547,16.533h-16c-14.187,0-27.829-6.08-37.44-16.533l-10.453-11.52
	c-14.603-15.893-26.56-34.027-35.413-53.333c-8.96-19.413-14.923-40.213-17.493-61.653c-0.736-6.08-1.28-12.267-1.28-18.443
	c0-0.107-0.107-0.107-0.107-0.224c-0.107-1.387-0.107-2.88-0.107-4.267c-0.107-0.853-0.107-1.6-0.107-2.453v-33.173
	c0-10.453,1.493-20.693,4.256-30.293c13.109-46.187,55.68-80.107,106.24-80.107c50.453,0,93.024,33.92,106.133,80.107
	C365.056,126.656,366.539,136.683,366.539,146.923"/>
<g style="opacity:0.1;">
	<g>
		<path style="fill:#40596B;" d="M312.107,337.077l-10.56,11.52c-9.589,10.56-23.253,16.533-37.547,16.533h-16
			c-10.421,0-20.533-3.339-28.981-9.227l61.707,45.867c19.243-5.152,37.131-16.341,50.464-33.76c0.16-0.192,0.277-0.341,0.427-0.533
			l0.032-55.349h-0.363C325.483,320.853,319.232,329.291,312.107,337.077"/>
	</g>
</g>
<path style="fill:#F8B64C;" d="M215.477,352.949l-0.171,0.203l2.475,1.845C216.96,354.389,216.267,353.611,215.477,352.949"/>
<g>
	<path style="fill:#40596B;" d="M366.539,146.923v36.267c0,1.173,0,2.347-0.107,3.52c-0.309,1.173-0.533,1.813-0.533,1.813
		s-21.653-24.96-31.68-56.427c-2.133-6.72-9.707-10.027-16-6.72c-15.467,8-42.357,20.053-62.187,18.347
		c-19.829,1.707-46.72-10.347-62.187-18.347c-6.293-3.307-13.867,0-16,6.72c-10.016,31.467-31.691,56.427-31.691,56.427
		s-0.107-0.32-0.213-0.853c0-0.107-0.107-0.107-0.107-0.224c-0.107-1.387-0.107-2.88-0.107-4.267
		c-0.107-0.853-0.107-1.6-0.107-2.453v-33.173c0-10.453,1.493-20.693,4.256-30.293c13.109-46.187,55.68-80.107,106.24-80.107
		c50.453,0,93.024,33.92,106.133,80.107C365.056,126.656,366.539,136.683,366.539,146.923"/>
	<path style="fill:#40596B;" d="M344.213,272.021l-26.56,27.872c0.651-44.725-61.579-37.589-61.579-37.589
		s-62.208-7.136-61.557,37.589l-26.571-27.872l-22.155-70.805l0.128,40.992l1.163,12.533c2.88,30.741,13.227,60.597,31.637,85.387
		c17.077,22.976,42.325,44.427,77.365,45.323c35.061-0.896,60.309-22.347,77.376-45.323c18.432-24.789,28.757-54.645,31.648-85.387
		l1.163-12.533l0.171-41.323L344.213,272.021z M289.856,315.349c0,0-8.811,5.877-33.792,0c-24.96,5.877-33.771,0-33.771,0
		c-13.205-9.547,11.381-22.261,11.381-22.261c15.776-2.805,22.389-18.496,22.389-18.496s6.613,15.691,22.4,18.496
		C278.453,293.088,303.061,305.803,289.856,315.349"/>
	<polygon style="fill:#40596B;" points="145.643,176.917 155.04,176.864 151.989,221.077 145.771,201.216 	"/>
	<polygon style="fill:#40596B;" points="366.539,176.917 357.141,176.864 360.213,221.077 366.421,201.216 	"/>
</g>
<path style="fill:#FF7058;" d="M379.243,135.872v6.987H132.949v-6.987c0-42.571,22.368-79.947,56.011-100.939
	c18.272-11.467,39.925-18.123,63.051-18.123h8.181c23.125,0,44.725,6.603,62.987,18.069
	C356.811,55.883,379.243,93.259,379.243,135.872"/>
<path style="fill:#F1543F;" d="M327.424,69.195l-8.971,73.664l-1.419,11.797H195.147l-1.419-11.797l-8.96-73.664
	c-1.419-11.701,0.043-23.456,4.192-34.261c18.272-11.467,39.925-18.123,63.051-18.123h8.16c23.125,0,44.747,6.603,63.019,18.08
	C327.339,45.696,328.843,57.44,327.424,69.195"/>
<path style="fill:#FF7058;" d="M306.592,142.859H205.579l-9.109-75.083C192.128,32,220.053,0.48,256.107,0.48
	c36.021,0,63.947,31.52,59.605,67.296L306.592,142.859z"/>
<path style="fill:#F1543F;" d="M379.339,176.864H132.843c-9.387,0-16.992-7.616-16.992-17.003c0-9.387,7.605-17.003,16.992-17.003
	h246.485c9.397,0,17.013,7.616,17.013,17.003C396.341,169.248,388.725,176.864,379.339,176.864"/>
<polygon style="fill:#54C0EB;" points="437.749,409.227 437.749,511.52 74.443,511.52 74.443,409.227 114.869,393.227 
	114.869,463.52 397.312,463.52 397.312,393.333 "/>
<g>
</g>
<g>
</g>
<g>
</g>
<g>
</g>
<g>
</g>
<g>
</g>
<g>
</g>
<g>
</g>
<g>
</g>
<g>
</g>
<g>
</g>
<g>
</g>
<g>
</g>
<g>
</g>
<g>
</g>
</svg>
