<svg id="Layer_1" enable-background="new 0 0 512 512" height="512" viewBox="0 0 512 512" width="512" xmlns="http://www.w3.org/2000/svg"><g><path d="m461 119.66v332.9c0 32.77-26.66 59.44-59.44 59.44h-291.12c-32.77 0-59.44-26.67-59.44-59.44v-393.13c0-32.77 26.67-59.43 59.44-59.43h230.9z" fill="#efefef"/><path d="m461 119.66v332.9c0 32.77-26.66 59.44-59.44 59.44h-145.56v-512h85.34z" fill="#e5e5e9"/><path d="m461 114.66v5h-104.66c-8.28 0-15-6.72-15-15v-104.66h5c3.98 0 7.8 1.58 10.61 4.39l99.66 99.66c2.81 2.81 4.39 6.63 4.39 10.61z" fill="#d3d1d7"/><g><path d="m131.137 118.541h20.544v20.544c0 8.284 6.716 15 15 15s15-6.716 15-15v-20.544h20.544c8.284 0 15-6.716 15-15s-6.716-15-15-15h-20.544v-20.544c0-8.284-6.716-15-15-15s-15 6.716-15 15v20.544h-20.544c-8.284 0-15 6.716-15 15s6.716 15 15 15z" fill="#ff6769"/><g fill="#6e6e6e"><path d="m396.62 218.54c0 8.29-6.71 15-15 15h-250.48c-8.29 0-15-6.71-15-15 0-8.28 6.71-15 15-15h250.48c8.29 0 15 6.72 15 15z"/><path d="m396.62 432.44c0 8.29-6.71 15-15 15h-250.48c-8.29 0-15-6.71-15-15 0-8.28 6.71-15 15-15h250.48c8.29 0 15 6.72 15 15z"/><path d="m366.62 271.99c0 8.29-6.71 15-15 15h-220.48c-8.29 0-15-6.71-15-15 0-8.28 6.71-15 15-15h220.48c8.29 0 15 6.72 15 15z"/><path d="m396.62 324.99c0 8.29-6.71 15-15 15h-250.48c-8.29 0-15-6.71-15-15 0-8.28 6.71-15 15-15h250.48c8.29 0 15 6.72 15 15z"/><path d="m344.39 377.44c0 8.29-6.72 15-15 15h-198.25c-8.29 0-15-6.71-15-15 0-8.28 6.71-15 15-15h198.25c8.28 0 15 6.72 15 15z"/></g></g><g fill="#5a5a5a"><path d="m329.39 392.44h-73.39v-30h73.39c8.28 0 15 6.72 15 15 0 8.29-6.72 15-15 15z"/><path d="m351.62 286.99h-95.62v-30h95.62c8.29 0 15 6.72 15 15 0 8.29-6.71 15-15 15z"/><path d="m396.62 432.44c0 8.29-6.71 15-15 15h-125.62v-30h125.62c8.29 0 15 6.72 15 15z"/><path d="m396.62 324.99c0 8.29-6.71 15-15 15h-125.62v-30h125.62c8.29 0 15 6.72 15 15z"/><path d="m381.62 233.54h-125.62v-30h125.62c8.29 0 15 6.72 15 15 0 8.29-6.71 15-15 15z"/></g></g></svg>