<svg id="Capa_1" enable-background="new 0 0 512 512" height="512" viewBox="0 0 512 512" width="512" xmlns="http://www.w3.org/2000/svg"><g><path d="m407.791 333.433c-3.45 0-6.853.204-10.202.587-20.615-24.181-46.345-41.869-76.771-52.81-.276-.113-.556-.214-.841-.302-2.214-.785-4.453-1.533-6.716-2.247 24.508-24.505 40.986-56.68 40.986-85.547v-15.534c11.604-5.082 19.737-16.685 19.737-30.159 0-13.998-8.792-25.974-21.137-30.707-5.113-49.49-39.945-91.089-87.792-104.876-1.439-6.754-7.446-11.838-14.621-11.838h-35.906c-6.921 0-12.742 4.734-14.44 11.13-23.537 6.294-45.034 19.711-61.153 38.357-16.362 18.927-26.54 42.56-29.133 67.23-12.351 4.735-21.147 16.708-21.147 30.703 0 13.479 8.145 25.085 19.766 30.165v15.529c0 28.84 16.48 61.026 40.986 85.548-2.203.695-4.386 1.421-6.542 2.183-.431.123-.852.275-1.261.454-32.497 11.734-59.628 31.159-80.874 57.984-20.432 25.796-34.956 57.649-43.169 94.685-2.926 13.253-5.125 29.909 3.918 41.167 8.831 10.993 24.606 12.402 37.363 12.402h64.818c5.523 0 10-4.478 10-10s-4.477-10-10-10h-64.819c-11.82 0-19.145-1.657-21.771-4.927-2.786-3.469-2.78-11.654.017-24.321 10.285-46.375 35.423-103.116 95.957-131.811-1.807 33.454 16.309 55.327 27.828 69.219 1.781 2.147 4.379 3.453 7.166 3.602.178.01.355.015.533.015 2.598 0 5.103-1.013 6.975-2.835l55.776-54.296 55.804 54.298c2.001 1.947 4.725 2.971 7.512 2.818 2.788-.15 5.386-1.459 7.166-3.61 11.505-13.902 29.594-35.788 27.802-69.171 17.348 8.261 32.692 19.277 45.927 32.96-33.288 12.969-56.943 45.39-56.943 83.24 0 16.325 4.404 31.639 12.08 44.82h-117.303c-5.523 0-10 4.478-10 10s4.477 10 10 10h133.147c15.992 15.153 37.568 24.462 61.277 24.462 49.187 0 89.203-40.053 89.203-89.283 0-49.232-40.016-89.284-89.203-89.284zm-75.359-218.887h-54.387c-10.273-26.884-12.227-49.073-12.58-81.602 35.617 12.659 61.508 44.133 66.967 81.602zm-112.864-94.546h25.825c.063 38.311 1.04 64.29 11.386 94.546h-48.577c10.328-30.258 11.304-56.236 11.366-94.546zm-20.063 12.157c-.33 32.96-2.229 55.287-12.565 82.389h-56.709c5.672-37.957 32.918-70.284 69.274-82.389zm-90.851 115.264c0-7.1 5.778-12.875 12.88-12.875h72.183.08 77.441c.013 0 .026.003.04.003.02 0 .04-.003.06-.003h69.795c7.086 0 12.852 5.775 12.852 12.875 0 7.115-5.765 12.903-12.852 12.903h-219.598c-7.102 0-12.881-5.788-12.881-12.903zm60.808 207.066c-10.215-13.37-20.022-30.917-15.313-56.348 4.34-1.401 8.823-2.679 13.47-3.812 9.988 7.33 20.759 13.343 31.925 17.518 3.55 1.32 6.968 2.411 10.311 3.321zm37.071-61.382c-41.612-15.557-78.113-62.281-78.113-99.991v-12.79h205.828v12.79c0 37.786-36.572 84.521-78.268 100.014-18.232 6.782-31.175 6.775-49.447-.023zm86.663 61.376-40.417-39.326c3.3-.901 6.672-1.978 10.171-3.28 11.221-4.17 22.045-10.195 32.079-17.549 4.591 1.119 9.081 2.385 13.463 3.804 4.72 25.396-5.083 42.959-15.296 56.351zm114.595 137.519c-38.159 0-69.203-31.08-69.203-69.283s31.044-69.284 69.203-69.284 69.203 31.081 69.203 69.284-31.044 69.283-69.203 69.283z"/><path d="m407.791 378.503c-5.523 0-10 4.478-10 10v31.266c0 5.522 4.477 10 10 10s10-4.478 10-10v-31.266c0-5.523-4.477-10-10-10z"/><path d="m407.791 451.253c-5.523 0-10 4.491-10 10.014s4.477 10 10 10 10-4.478 10-10v-.028c0-5.523-4.477-9.986-10-9.986z"/><path d="m168.513 467.537c-5.523 0-10 4.478-10 10s4.477 10 10 10h.057c5.523 0 9.972-4.478 9.972-10s-4.506-10-10.029-10z"/></g></svg>