<svg xmlns="http://www.w3.org/2000/svg" width="318.661" height="321.764" viewBox="0 0 318.661 321.764">
  <g id="ingenieria" transform="translate(0 -0.001)">
    <path id="Trazado_213" data-name="Trazado 213" d="M15.438,260.582,260.582,15.438A6.7,6.7,0,0,0,255.846,4H10.7A6.7,6.7,0,0,0,4,10.7V255.847a6.7,6.7,0,0,0,11.438,4.736ZM44.2,158.789V50.9a6.7,6.7,0,0,1,6.7-6.7H158.788a6.7,6.7,0,0,1,4.736,11.438L55.642,163.524A6.7,6.7,0,0,1,44.2,158.789Zm0,0" transform="translate(-1.127 -1.127)" fill="#6bdddd"/>
    <g id="Grupo_94" data-name="Grupo 94" transform="translate(0 0.001)">
      <path id="Trazado_214" data-name="Trazado 214" d="M9.634,264.318a9.743,9.743,0,0,1-3.726-.752A9.428,9.428,0,0,1,0,254.72V9.573A9.585,9.585,0,0,1,9.573,0H254.719a9.43,9.43,0,0,1,8.846,5.909,9.424,9.424,0,0,1-2.076,10.434L16.342,261.49a9.443,9.443,0,0,1-6.708,2.828ZM9.573,5.746A3.832,3.832,0,0,0,5.746,9.573V254.72a3.827,3.827,0,0,0,6.534,2.707L257.427,12.28a3.753,3.753,0,0,0,.828-4.172,3.751,3.751,0,0,0-3.535-2.362Zm40.265,161.51a9.719,9.719,0,0,1-3.723-.752,9.423,9.423,0,0,1-5.911-8.846V49.776A9.585,9.585,0,0,1,49.776,40.2H157.661a9.572,9.572,0,0,1,6.767,16.342L56.546,164.428a9.432,9.432,0,0,1-6.708,2.828ZM49.776,45.95a3.832,3.832,0,0,0-3.827,3.827V157.662a3.825,3.825,0,0,0,6.531,2.7L160.366,52.484a3.827,3.827,0,0,0-2.707-6.534Zm0,0" transform="translate(0 -0.001)" fill="#3762cc"/>
      <path id="Trazado_215" data-name="Trazado 215" d="M27.452,319.1a2.873,2.873,0,1,0,0-5.746H4V319.1Zm0,0" transform="translate(-1.127 -88.296)" fill="#3762cc"/>
      <path id="Trazado_216" data-name="Trazado 216" d="M27.452,272.453a2.873,2.873,0,0,0,0-5.746H4v5.746Zm0,0" transform="translate(-1.127 -75.152)" fill="#3762cc"/>
      <path id="Trazado_217" data-name="Trazado 217" d="M27.452,225.8a2.873,2.873,0,1,0,0-5.746H4V225.8Zm0,0" transform="translate(-1.127 -62.008)" fill="#3762cc"/>
      <path id="Trazado_218" data-name="Trazado 218" d="M27.452,179.156a2.873,2.873,0,0,0,0-5.746H4v5.746Zm0,0" transform="translate(-1.127 -48.863)" fill="#3762cc"/>
      <path id="Trazado_219" data-name="Trazado 219" d="M27.452,132.512a2.873,2.873,0,1,0,0-5.746H4v5.746Zm0,0" transform="translate(-1.127 -35.72)" fill="#3762cc"/>
      <path id="Trazado_220" data-name="Trazado 220" d="M27.452,85.863a2.873,2.873,0,0,0,0-5.746H4v5.746Zm0,0" transform="translate(-1.127 -22.576)" fill="#3762cc"/>
      <path id="Trazado_221" data-name="Trazado 221" d="M27.452,39.218a2.873,2.873,0,0,0,0-5.746H4v5.746Zm0,0" transform="translate(-1.127 -9.432)" fill="#3762cc"/>
    </g>
    <path id="Trazado_222" data-name="Trazado 222" d="M352.05,116.637a61.44,61.44,0,0,0,9.867-109.8,2.46,2.46,0,0,0-3.72,2.118V54.208a2.462,2.462,0,0,1-.592,1.6L344.792,70.735a2.458,2.458,0,0,1-1.866.856H316.9a2.463,2.463,0,0,1-1.868-.856L302.226,55.81a2.465,2.465,0,0,1-.595-1.6V8.951a2.457,2.457,0,0,0-3.717-2.115,61.5,61.5,0,0,0,9.867,109.877V309.225a11.492,11.492,0,0,0,11.492,11.492h21.387a11.492,11.492,0,0,0,11.492-11.492V199.042h-.1v-82.4Zm0,0" transform="translate(-75.638 -1.825)" fill="#a4c9ff"/>
    <path id="Trazado_223" data-name="Trazado 223" d="M339.537,322.464H318.15A14.381,14.381,0,0,1,303.785,308.1V117.538a63.769,63.769,0,0,1-39.348-59.3A63.968,63.968,0,0,1,295.29,3.262a5.331,5.331,0,0,1,8.091,4.567v45.1L315.97,67.6h25.643L354.2,52.932V7.827a5.334,5.334,0,0,1,8.094-4.567,63.98,63.98,0,0,1,30.853,54.91A64.82,64.82,0,0,1,353.8,117.446v79.726a2.7,2.7,0,0,1,.107.743V308.1a14.386,14.386,0,0,1-14.367,14.364ZM297.636,8.57a58.249,58.249,0,0,0-27.452,49.667,58.069,58.069,0,0,0,37.5,54.669,2.874,2.874,0,0,1,1.849,2.685V308.1a8.628,8.628,0,0,0,8.619,8.619h21.387a8.628,8.628,0,0,0,8.619-8.619V198.661a2.7,2.7,0,0,1-.1-.743v-82.4a2.87,2.87,0,0,1,1.835-2.679A59.021,59.021,0,0,0,387.4,58.172,58.258,58.258,0,0,0,359.944,8.567V53.083a5.329,5.329,0,0,1-1.288,3.473L345.849,71.479a5.33,5.33,0,0,1-4.046,1.86H315.782a5.326,5.326,0,0,1-4.046-1.86l-12.81-14.923a5.344,5.344,0,0,1-1.288-3.473V8.57Zm0,0" transform="translate(-74.512 -0.7)" fill="#3762cc"/>
    <path id="Trazado_224" data-name="Trazado 224" d="M312.343,429.89H9.088A4.686,4.686,0,0,1,4.4,425.2v-26.6a4.684,4.684,0,0,1,4.685-4.682H312.343a4.682,4.682,0,0,1,4.685,4.682v26.6A4.685,4.685,0,0,1,312.343,429.89Zm0,0" transform="translate(-1.241 -110.999)" fill="#ffea92"/>
    <path id="Trazado_225" data-name="Trazado 225" d="M311.216,431.635H7.961A7.567,7.567,0,0,1,.4,424.077v-26.6a7.567,7.567,0,0,1,7.558-7.558H311.216a7.565,7.565,0,0,1,7.558,7.558v26.6A7.565,7.565,0,0,1,311.216,431.635ZM7.961,395.671a1.813,1.813,0,0,0-1.812,1.81v26.6a1.815,1.815,0,0,0,1.812,1.812H311.216a1.815,1.815,0,0,0,1.812-1.812v-26.6a1.811,1.811,0,0,0-1.812-1.81Zm0,0" transform="translate(-0.113 -109.871)" fill="#3762cc"/>
    <path id="Trazado_226" data-name="Trazado 226" d="M155.316,338.751h56.257L279.142,248.1a12.872,12.872,0,0,0-2.407-17.846,151.571,151.571,0,0,0-186.4-.2A12.875,12.875,0,0,0,87.885,247.9Zm0,0" transform="translate(-24.049 -55.824)" fill="#ffea92"/>
    <path id="Trazado_227" data-name="Trazado 227" d="M210.459,340.5H154.2a2.874,2.874,0,0,1-2.306-1.162l-67.432-90.85a15.836,15.836,0,0,1,2.991-21.824,154.448,154.448,0,0,1,189.933.2,15.832,15.832,0,0,1,2.943,21.83l-67.572,90.648a2.861,2.861,0,0,1-2.3,1.159Zm-54.809-5.746h53.367l66.711-89.494a10.054,10.054,0,0,0-1.871-13.862,148.7,148.7,0,0,0-182.878-.2,10.057,10.057,0,0,0-1.9,13.862Zm0,0" transform="translate(-22.935 -54.697)" fill="#3762cc"/>
    <path id="Trazado_228" data-name="Trazado 228" d="M316,341.721l8.888,6.59a11.065,11.065,0,0,0,15.481-2.295l36.256-48.887a11.065,11.065,0,0,0-2.3-15.481l-8.888-6.593a11.068,11.068,0,0,0-15.481,2.3L313.7,326.24A11.066,11.066,0,0,0,316,341.721Zm0,0" transform="translate(-87.781 -76.891)" fill="#ffea92"/>
    <path id="Trazado_229" data-name="Trazado 229" d="M330.338,352.235a13.871,13.871,0,0,1-8.288-2.738l-8.888-6.59a13.958,13.958,0,0,1-2.893-19.5l36.256-48.887a13.959,13.959,0,0,1,19.5-2.893l8.888,6.593a13.941,13.941,0,0,1,2.893,19.5l-36.259,48.887a13.92,13.92,0,0,1-11.211,5.628Zm27.4-77.608a8.539,8.539,0,0,0-1.22.09,8.15,8.15,0,0,0-5.378,3.224l-36.256,48.887a8.2,8.2,0,0,0,1.7,11.464l8.888,6.59a8.2,8.2,0,0,0,11.464-1.7L373.2,294.294a8.2,8.2,0,0,0-1.7-11.464l-8.888-6.59a8.153,8.153,0,0,0-4.865-1.613Zm0,0" transform="translate(-86.655 -75.766)" fill="#3762cc"/>
    <path id="Trazado_230" data-name="Trazado 230" d="M102.793,341.722l-8.888,6.59a11.065,11.065,0,0,1-15.481-2.295L42.165,297.13a11.062,11.062,0,0,1,2.3-15.478l8.888-6.593a11.066,11.066,0,0,1,15.481,2.3l36.256,48.887a11.062,11.062,0,0,1-2.295,15.478Zm0,0" transform="translate(-11.267 -76.891)" fill="#ffea92"/>
    <path id="Trazado_231" data-name="Trazado 231" d="M86.2,352.234A13.928,13.928,0,0,1,74.987,346.6L38.731,297.716a13.941,13.941,0,0,1,2.893-19.5l8.888-6.59a13.952,13.952,0,0,1,19.5,2.89l36.259,48.89a13.956,13.956,0,0,1-2.9,19.5L94.486,349.5a13.845,13.845,0,0,1-8.285,2.738ZM58.8,274.626a8.14,8.14,0,0,0-4.865,1.613l-8.888,6.593a8.2,8.2,0,0,0-1.7,11.464L79.6,343.18a8.194,8.194,0,0,0,11.464,1.7l8.888-6.593a8.2,8.2,0,0,0,1.7-11.461L65.4,277.94a8.252,8.252,0,0,0-6.6-3.313Zm42.866,65.97h.014Zm0,0" transform="translate(-10.14 -75.765)" fill="#3762cc"/>
    <path id="Trazado_232" data-name="Trazado 232" d="M330.338,352.235a13.871,13.871,0,0,1-8.288-2.738l-8.888-6.59a13.958,13.958,0,0,1-2.893-19.5l36.256-48.887a13.959,13.959,0,0,1,19.5-2.893l8.888,6.593a13.941,13.941,0,0,1,2.893,19.5l-36.259,48.887a13.92,13.92,0,0,1-11.211,5.628Zm27.4-77.608a8.539,8.539,0,0,0-1.22.09,8.15,8.15,0,0,0-5.378,3.224l-36.256,48.887a8.2,8.2,0,0,0,1.7,11.464l8.888,6.59a8.2,8.2,0,0,0,11.464-1.7L373.2,294.294a8.2,8.2,0,0,0-1.7-11.464l-8.888-6.59a8.153,8.153,0,0,0-4.865-1.613Zm0,0" transform="translate(-86.655 -75.766)" fill="#3762cc"/>
    <path id="Trazado_233" data-name="Trazado 233" d="M71.781,267.258c-.109-.149-.2-.3-.3-.449-2.483,2.4-4.859,4.91-7.168,7.488a11.25,11.25,0,0,1,1.2,1.347l36.259,48.887a11.066,11.066,0,0,1-2.3,15.481l-8.888,6.59A11.065,11.065,0,0,1,75.1,344.307L44.385,302.891A144.067,144.067,0,0,0,28.191,358.1H139.213Zm0,0" transform="translate(-7.944 -75.18)" fill="#ffea92"/>
    <path id="Trazado_234" data-name="Trazado 234" d="M356.4,303.555,326.16,344.333a11.068,11.068,0,0,1-15.481,2.3l-8.888-6.593a11.063,11.063,0,0,1-2.3-15.478l36.256-48.887a10.5,10.5,0,0,1,.78-.934c-2.4-2.7-4.882-5.328-7.474-7.836-.129.2-.25.393-.39.584l-67.572,90.648H372.276A144.122,144.122,0,0,0,356.4,303.555Zm0,0" transform="translate(-73.57 -75.207)" fill="#ffea92"/>
    <path id="Trazado_235" data-name="Trazado 235" d="M138.083,359.853H27.064a2.875,2.875,0,0,1-2.864-3.117,146.431,146.431,0,0,1,16.516-56.313,2.873,2.873,0,0,1,4.848-.37l30.715,41.416a8.193,8.193,0,0,0,11.464,1.7l8.888-6.593a8.2,8.2,0,0,0,1.7-11.461l-36.256-48.89a8.309,8.309,0,0,0-.889-.993,2.874,2.874,0,0,1-.14-3.981c2.576-2.876,4.969-5.373,7.314-7.637a2.871,2.871,0,0,1,4.368.443l.16.244-2.157,1.765,0,0,2.23-1.655,67.429,90.85a2.873,2.873,0,0,1-2.309,4.587ZM30.226,354.107H132.374L70,270.078q-1.464,1.494-3,3.156l35.942,48.458a13.959,13.959,0,0,1-2.9,19.5l-8.888,6.59a13.944,13.944,0,0,1-19.5-2.89L43.715,307.206a140.444,140.444,0,0,0-13.489,46.9Zm0,0" transform="translate(-6.816 -74.053)" fill="#3762cc"/>
    <path id="Trazado_236" data-name="Trazado 236" d="M371.148,359.88H259.966a2.874,2.874,0,0,1-2.306-4.59l67.572-90.651c.062-.079.112-.163.168-.247l.132-.2a2.87,2.87,0,0,1,4.388-.477c2.491,2.4,4.985,5.019,7.628,7.99a2.877,2.877,0,0,1-.042,3.863,8.069,8.069,0,0,0-.575.69l-36.259,48.887a8.193,8.193,0,0,0,1.7,11.461l8.891,6.593a8.19,8.19,0,0,0,11.461-1.7l30.247-40.779a2.843,2.843,0,0,1,2.533-1.153,2.876,2.876,0,0,1,2.32,1.532,146.445,146.445,0,0,1,16.188,55.665,2.88,2.88,0,0,1-2.865,3.123Zm-105.458-5.746h102.3A140.506,140.506,0,0,0,354.8,307.887l-27.464,37.033a13.944,13.944,0,0,1-19.5,2.89l-8.888-6.59a13.941,13.941,0,0,1-2.893-19.5l35.589-47.983c-1.145-1.251-2.264-2.432-3.369-3.563Zm0,0" transform="translate(-72.442 -74.08)" fill="#3762cc"/>
  </g>
</svg>
