<svg xmlns="http://www.w3.org/2000/svg" width="248" height="321.095" viewBox="0 0 248 321.095">
  <g id="obrero_1_" data-name="obrero (1)" transform="translate(-66 -10)">
    <g id="Grupo_75" data-name="Grupo 75" transform="translate(66 237.769)">
      <path id="Trazado_173" data-name="Trazado 173" d="M218.716,359H161.284l-44.41,10.037A65.264,65.264,0,0,0,66,432.7v19.631H314V432.7a65.263,65.263,0,0,0-50.875-63.657Z" transform="translate(-66 -359)" fill="#6e83b7"/>
    </g>
    <g id="Grupo_76" data-name="Grupo 76" transform="translate(148.345 237.769)">
      <path id="Trazado_174" data-name="Trazado 174" d="M233.829,400.768a41.815,41.815,0,0,0,41.655-38.844L262.545,359H205.113l-12.939,2.924A41.816,41.816,0,0,0,233.829,400.768Z" transform="translate(-192.174 -359)" fill="#edeff1"/>
    </g>
    <g id="Grupo_77" data-name="Grupo 77" transform="translate(161.284 205.26)">
      <path id="Trazado_175" data-name="Trazado 175" d="M212,309.188V341.7a28.716,28.716,0,1,0,57.432,0V309.188Z" transform="translate(-212 -309.188)" fill="#ffd3b3"/>
    </g>
    <g id="Grupo_78" data-name="Grupo 78" transform="translate(161.284 205.259)">
      <path id="Trazado_176" data-name="Trazado 176" d="M212,324.008a72.37,72.37,0,0,0,57.432,0V309.187H212Z" transform="translate(-212 -309.187)" fill="#fcb98b"/>
    </g>
    <g id="Grupo_79" data-name="Grupo 79" transform="translate(130.611 114.421)">
      <path id="Trazado_177" data-name="Trazado 177" d="M283.779,170v39.158a59.39,59.39,0,1,1-118.779,0V170Z" transform="translate(-165 -170)" fill="#ffd3b3"/>
    </g>
    <g id="Grupo_80" data-name="Grupo 80" transform="translate(233.727 114.421)">
      <path id="Trazado_178" data-name="Trazado 178" d="M323,170l15.663,39.158V170Z" transform="translate(-323 -170)" fill="#6e83b7"/>
    </g>
    <g id="Grupo_81" data-name="Grupo 81" transform="translate(130.611 114.421)">
      <path id="Trazado_179" data-name="Trazado 179" d="M180.663,170,165,209.158V170Z" transform="translate(-165 -170)" fill="#6e83b7"/>
    </g>
    <g id="Grupo_82" data-name="Grupo 82" transform="translate(114.947 114.421)">
      <path id="Trazado_180" data-name="Trazado 180" d="M147.526,201.979h9.137V170h-9.137A6.526,6.526,0,0,0,141,176.526v18.926A6.526,6.526,0,0,0,147.526,201.979Z" transform="translate(-141 -170)" fill="#ffd3b3"/>
    </g>
    <g id="Grupo_83" data-name="Grupo 83" transform="translate(249.39 114.421)">
      <path id="Trazado_181" data-name="Trazado 181" d="M356.137,201.979H347V170h9.137a6.526,6.526,0,0,1,6.526,6.526v18.926A6.526,6.526,0,0,1,356.137,201.979Z" transform="translate(-347 -170)" fill="#ffd3b3"/>
    </g>
    <g id="Grupo_84" data-name="Grupo 84" transform="translate(261.883 311.516)">
      <path id="Trazado_182" data-name="Trazado 182" d="M366.143,472h6.526v19.579h-6.526Z" transform="translate(-366.143 -472)" fill="#466089"/>
    </g>
    <g id="Grupo_85" data-name="Grupo 85" transform="translate(111.591 311.516)">
      <path id="Trazado_183" data-name="Trazado 183" d="M135.857,472h6.526v19.579h-6.526Z" transform="translate(-135.857 -472)" fill="#466089"/>
    </g>
    <g id="Grupo_86" data-name="Grupo 86" transform="translate(120.169 19.137)">
      <path id="Trazado_184" data-name="Trazado 184" d="M149,119.284V93.832a69.832,69.832,0,1,1,139.663,0v25.453Z" transform="translate(-149 -24)" fill="#ffe352"/>
    </g>
    <g id="Grupo_87" data-name="Grupo 87" transform="translate(102.547 95.084)">
      <path id="Trazado_185" data-name="Trazado 185" d="M209.453,140.37c36.258,0,87.453,7.59,87.453,7.59v11.747H122V147.96S173.2,140.37,209.453,140.37Z" transform="translate(-122 -140.37)" fill="#ffe352"/>
    </g>
    <g id="Grupo_88" data-name="Grupo 88" transform="translate(151.546 19.137)">
      <path id="Trazado_186" data-name="Trazado 186" d="M235.532,24a69.415,69.415,0,0,0-38.454,11.582l4.126,66.009h68.657l4.126-66.009A69.415,69.415,0,0,0,235.532,24Z" transform="translate(-197.078 -24)" fill="#ffb236"/>
    </g>
    <g id="Grupo_89" data-name="Grupo 89" transform="translate(160.388 10)">
      <path id="Trazado_187" data-name="Trazado 187" d="M215.1,87.349h50.277l4.474-71.59a79.007,79.007,0,0,0-59.225,0Z" transform="translate(-210.626 -10)" fill="#ffe352"/>
    </g>
    <g id="Grupo_90" data-name="Grupo 90" transform="translate(118.211 241.161)">
      <path id="Trazado_188" data-name="Trazado 188" d="M279.79,412.142V368.329L261.516,364.2v47.513a26.106,26.106,0,0,1-26.105,26.105H200.169a26.106,26.106,0,0,1-26.105-26.105V364.2l-18.274,4.13v43.814a26.1,26.1,0,0,1-4.536,14.706l-5.253,7.7v19.579H289.579V434.553l-5.253-7.7A26.1,26.1,0,0,1,279.79,412.142Z" transform="translate(-146 -364.198)" fill="#ffe352"/>
    </g>
  </g>
</svg>
