<svg height="512" viewBox="0 0 60 60" width="512" xmlns="http://www.w3.org/2000/svg"><g id="Page-1" fill="none" fill-rule="evenodd"><g id="036---Pension-Contract" fill-rule="nonzero"><path id="Shape" d="m41 44.93v12.07c-.0032948 1.1032019-.8967981 1.9967052-2 2h-36c-1.10320187-.0032948-1.9967052-.8967981-2-2v-54c.0032948-1.10320187.89679813-1.9967052 2-2h29l9 9z" fill="#ffdc00"/><path id="Shape" d="m32 1h-3l9 9v47c-.0032948 1.1032019-.8967981 1.9967052-2 2h3c1.1032019-.0032948 1.9967052-.8967981 2-2v-47z" fill="#fec108"/><path id="Shape" d="m32 1v7c.0032948 1.10320187.8967981 1.9967052 2 2h7z" fill="#ffeb3a"/><path id="Shape" d="m57.35 26.93c-.0055256 1.0618734-.4295209 2.0787433-1.18 2.83l-10.61 10.61-5.65-5.66 10.45-10.45c.7791086-.8013452 1.8481412-1.2551116 2.965795-1.2588748 1.1176539-.0037631 2.1897179.4427942 2.974205 1.2388748.6671804.7380925 1.0407338 1.6951009 1.05 2.69z" fill="#3f51b5"/><path id="Shape" d="m56.3 24.24c-1.1328887-1.1845672-2.8716271-1.5624678-4.394-.955.5315864.207537 1.0084824.5342484 1.394.955 1.4491292 1.575197 1.3916755 4.0147676-.13 5.52l-9.109 9.109 1.5 1.5 10.609-10.609c1.5216755-1.5052324 1.5791292-3.944803.13-5.52z" fill="#283593"/><path id="Shape" d="m45.56 40.37-8.36 8.36c-2.2813646 2.2800723-5.2959545 3.6793238-8.51 3.95-.2986674.0248555-.5931325-.0830279-.8050523-.2949477s-.3198032-.5063849-.2949477-.8050523c.121905-1.4022177.455698-2.7778492.99-4.08.6889807-1.6576436 1.6982545-3.1630587 2.97-4.43l8.36-8.36z" fill="#02a9f4"/><path id="Shape" d="m39.91 34.71-1.5 1.5 4.15 4.16-8.36 8.36c-1.7547438 1.7505477-3.9530494 2.9902275-6.359 3.586.2066468.2526044.5235576.3884766.849.364 3.2140455-.2706762 6.2286354-1.6699277 8.51-3.95l8.36-8.36z" fill="#0377bc"/><path id="Shape" d="m25.5 10-1.5 5h-7v-5z" fill="#a0522d"/><g fill="#000"><path id="Shape" d="m12 42c-.5522847 0-1 .4477153-1 1 .0042446.7964372-.0378264 1.5924473-.126 2.384-.589706-.2615179-1.22896324-.3925076-1.874-.384-1.6568542.0000001-2.99999987 1.3431458-2.99999987 3s1.34314567 2.9999999 2.99999987 3c1.3952583-.0352738 2.6193773-.9396751 3.063-2.263 1.1258019.8655013 2.5178046 1.3120594 3.937 1.263 1.6601499-.1009957 3.1432966-1.0718863 3.9-2.553.2485281-.4934664.0499664-1.0949718-.4435-1.3435-.4934664-.2485281-1.0949719-.0499664-1.3435.4435-.4179204.8064282-1.2104156 1.3513859-2.113 1.453-1.2378834.0415315-2.4359425-.4405965-3.3-1.328.216099-1.2117326.3165506-2.4412601.3-3.672 0-.5522847-.4477153-1-1-1zm-4 6c0-.5522847.44771525-1 1-1 .51138475-.0132396 1.014132.133599 1.438.42-.832 2.36-2.438 1.629-2.438.58z"/><path id="Shape" d="m20 53h-14c-.55228475 0-1 .4477153-1 1s.44771525 1 1 1h14c.5522847 0 1-.4477153 1-1s-.4477153-1-1-1z"/><path id="Shape" d="m58.293 31.88-1.414-1.414c1.8922236-1.8854178 1.9649401-4.9262913.165-6.9-.901211-.9823217-2.1680158-1.5489645-3.501-1.566-1.4551447-.0305047-2.8604972.5301931-3.895 1.554l-7.648 7.646v-21.2c-.0000566-.26519481-.1054506-.51950727-.293-.707l-9-9c-.1874927-.18754937-.4418052-.29294336-.707-.293h-29c-1.65685425 0-3 1.34314575-3 3v54c0 1.6568542 1.34314575 3 3 3h36c1.6568542 0 3-1.3431458 3-3v-11.656l4.271-4.27 9.191-9.191 1.414 1.414-7.071 7.072c-.2599566.2510745-.3642126.6228779-.2726972.9725073.0915155.3496295.3645604.6226744.7141899.7141899.3496294.0915154.7214328-.0127406.9725073-.2726972l8.485-8.486c.2599566-.2510745.3642126-.6228779.2726972-.9725073-.0915155-.3496295-.3645604-.6226744-.7141899-.7141899-.3496294-.0915154-.7214328.0127406-.9725073.2726972zm-7.23-6.911c.62537-.6207801 1.4708328-.9691022 2.352-.969h.08c.7858451.0056529 1.53435.3361099 2.068.913 1.0800655 1.1835911 1.0359773 3.0079624-.1 4.138l-9.9 9.9-4.243-4.242zm-22.474 26.7c.2523314-2.9792112 1.5506054-5.7730685 3.665-7.887l7.654-7.654 4.243 4.242-7.651 7.65c-2.1172231 2.1204161-4.9234504 3.413033-7.911 3.644zm4.411-48.255 5.586 5.586h-4.586c-.5522847 0-1-.44771525-1-1zm7 53.586c0 .5522847-.4477153 1-1 1h-36c-.55228475 0-1-.4477153-1-1v-54c0-.55228475.44771525-1 1-1h28v6c0 1.65685425 1.3431458 3 3 3h6v22.2l-9.16 9.16c-2.4494371 2.449597-3.9516606 5.6878806-4.24 9.14-.012439.1718678-.0026921.3446221.029.514l-1.319 1.268c-.3981973.3827333-.4107333 1.0158027-.028 1.414.3827334.3981973 1.0158027.4107333 1.414.028l1.215-1.167c.2237051.0848803.4607396.1292397.7.131.057 0 .114 0 .171-.007 3.4496164-.2931529 6.684538-1.7963837 9.133-4.244l2.085-2.093z"/><path id="Shape" d="m13.465 19.845c4.6124732 2.8732474 10.4575268 2.8732474 15.07 0 .3018894-.1911371.4788763-.5288111.4642915-.8858236-.0145849-.3570124-.2185257-.6791246-.535-.845s-.6974021-.1503135-.9992915.0408236c-.3714023.2325712-.755685.4439099-1.151.633l-1.265-3.8 2.909-9.7c.1025352-.34226044.0146879-.71322402-.2304507-.97315236-.2451386-.25992833-.6103262-.36933211-.958-.287-.3476739.08233211-.6250141.34389192-.7275493.68615236l-1.286 4.286h-9.756c-.5522847 0-1 .44771525-1 1 0 .5522847.4477153 1 1 1h1v3h-1c-.5522847 0-1 .4477153-1 1s.4477153 1 1 1h1.613l-.927 2.788c-.395315-.1890901-.7795977-.4004288-1.151-.633-.3018894-.1911371-.6828172-.206699-.9992915-.0408236s-.5204151.4879876-.535.845c-.0145848.3570125.1624021.6946865.4642915.8858236zm4.535-8.845h6.156l-.9 3h-5.256zm.721 5h4.558l1.168 3.512c-2.2519419.6506658-4.6420581.6506658-6.894 0z"/><path id="Shape" d="m6 27h30c.5522847 0 1-.4477153 1-1s-.4477153-1-1-1h-30c-.55228475 0-1 .4477153-1 1s.44771525 1 1 1z"/><path id="Shape" d="m36 29h-12c-.5522847 0-1 .4477153-1 1s.4477153 1 1 1h12c.5522847 0 1-.4477153 1-1s-.4477153-1-1-1z"/><path id="Shape" d="m6 31h14c.5522847 0 1-.4477153 1-1s-.4477153-1-1-1h-14c-.55228475 0-1 .4477153-1 1s.44771525 1 1 1z"/><path id="Shape" d="m35 33h-21c-.5522847 0-1 .4477153-1 1s.4477153 1 1 1h21c.5522847 0 1-.4477153 1-1s-.4477153-1-1-1z"/><path id="Shape" d="m6 35h4c.5522847 0 1-.4477153 1-1s-.4477153-1-1-1h-4c-.55228475 0-1 .4477153-1 1s.44771525 1 1 1z"/><path id="Shape" d="m22 37h-16c-.55228475 0-1 .4477153-1 1s.44771525 1 1 1h16c.5522847 0 1-.4477153 1-1s-.4477153-1-1-1z"/></g></g></g></svg>